<?xml version="1.0" encoding="utf-8"?>
<!-- Generator: Adobe Illustrator 27.0.0, SVG Export Plug-In . SVG Version: 6.00 Build 0)  -->
<svg version="1.1" id="圖層_1" xmlns="http://www.w3.org/2000/svg" xmlns:xlink="http://www.w3.org/1999/xlink" x="0px" y="0px"
	 viewBox="0 0 154.8 138.4" style="enable-background:new 0 0 154.8 138.4;" xml:space="preserve">
<style type="text/css">
	.st0{fill:#FFFFFF;}
	.st1{fill:#8ED300;}
</style>
<path class="st0" d="M81.6,36c-1.2-8.2-10.1-8.8-10.1-8.8H59l8.3,54.8l16.8-29.6L81.6,36z"/>
<path class="st0" d="M47.9,36c-1.2-8.2-10.1-8.8-10.1-8.8H25.4l8,52.8h0c0,0,1.3,8.8,10.1,8.8H56L47.9,36z"/>
<path class="st0" d="M14.4,100.5c9.3,9.5,24.9,13.3,42.6,11.8l7.7-13.5c-17.5,2.7-33.1-0.2-41.7-9.2c-9.3-9.7-8.3-24.2,0.8-38.5
	l-1.3-8.5C4.6,63.1,0.4,86.2,14.4,100.5z"/>
<path class="st0" d="M118.1,4.5C96.8,0.6,68.5,7.4,44.1,23.7c1.5,0.7,3,1.6,4.3,2.8c0.8-0.6,1.7-1.1,2.6-1.7
	c21.7-14,46.6-19.7,64.8-16.3c1.8,0.3,3.5,0.8,5.1,1.3l2.3-4.1C121.6,5.2,119.9,4.8,118.1,4.5z"/>
<path class="st0" d="M141.4,16.2l-3.5,6.2c1,1.8,1.8,3.6,2.3,5.5c3.9,15.2-7.2,35.6-29.1,51.4L99.8,99.1c3.8-2,7.6-4.3,11.3-6.8
	c32.3-21.7,46.1-52.6,33.4-72.2C143.6,18.8,142.6,17.4,141.4,16.2z"/>
<path class="st1" d="M140.9,15.5c-4.5-4.6-10.6-7.9-17.6-9.9l-2.3,4.1L50.8,133.4h24.1l63-111l3.5-6.2
	C141.2,16,141.1,15.7,140.9,15.5z"/>
</svg>
