<?xml version="1.0" encoding="utf-8"?>
<!-- Generator: Adobe Illustrator 16.0.3, SVG Export Plug-In . SVG Version: 6.00 Build 0)  -->
<!DOCTYPE svg PUBLIC "-//W3C//DTD SVG 1.1//EN" "http://www.w3.org/Graphics/SVG/1.1/DTD/svg11.dtd">
<svg version="1.1" id="圖層_1" xmlns="http://www.w3.org/2000/svg" xmlns:xlink="http://www.w3.org/1999/xlink" x="0px" y="0px"
	 width="358.219px" height="154.11px" viewBox="0 0 358.219 154.11" enable-background="new 0 0 358.219 154.11"
	 xml:space="preserve">
<rect x="-0.002" display="none" fill="#006C92" width="358.222" height="154.11"/>
<path fill="#006C92" d="M237.521,107.125l-16.895,29.672h-10.117l-1.851-17.646h-0.11l-9.844,17.646h-10.26l-4.51-29.672h10.238
	l1.09,18.736h0.117l10.26-18.736h10.295l1.674,18.51h0.113l8.143-18.51H237.521z"/>
<path fill="#006C92" d="M285.882,111.709c3.133-3.506,6.953-5.26,11.471-5.26c2.686,0,4.695,0.689,6.037,2.061
	c1.344,1.369,2.019,3.055,2.019,5.049c0,1.189-0.378,3.541-1.12,7.043l-3.443,16.195h-11.408l2.934-13.789
	c0.711-3.371,1.063-5.305,1.063-5.789c0-1.643-0.744-2.463-2.24-2.463c-1.674,0-3.137,0.791-4.387,2.365s-2.188,3.846-2.824,6.809
	l-2.799,12.867H269.72l6.379-29.672h10.656l-0.982,4.475L285.882,111.709z"/>
<path fill="#006C92" d="M321.04,111.709c3.139-3.506,6.957-5.26,11.471-5.26c2.678,0,4.695,0.689,6.041,2.061
	c1.342,1.369,2.01,3.055,2.01,5.049c0,1.189-0.369,3.541-1.119,7.043l-3.434,16.195h-11.414l2.934-13.789
	c0.717-3.371,1.059-5.305,1.059-5.789c0-1.643-0.736-2.463-2.236-2.463c-1.668,0-3.137,0.791-4.387,2.365
	c-1.244,1.574-2.189,3.846-2.82,6.809l-2.795,12.867h-11.477l6.385-29.672h10.656l-0.986,4.475L321.04,111.709z"/>
<path fill="#006C92" d="M167.374,107.125l-16.893,29.672h-10.129l-1.844-17.646h-0.109l-9.85,17.646h-10.258l-4.504-29.672h10.232
	l1.09,18.736h0.113l10.266-18.736h10.293l1.676,18.51h0.111l8.139-18.51H167.374z"/>
<path fill="#006C92" d="M176.601,104.01c-3.721,0-6.01-2.783-5.408-6.184c0.615-3.512,3.867-6.189,7.586-6.189
	c3.402,0,5.82,2.678,5.205,6.189C183.38,101.227,180.003,104.01,176.601,104.01z"/>
<g>
	<polygon fill="#8ED300" points="262.367,107.036 252.614,124.231 250.94,107.125 239.729,107.125 245.343,137.053 237.576,150.747 
		249.242,150.747 274.033,107.036 	"/>
	<polygon fill="#8ED300" points="175.444,136.758 163.138,136.758 169.491,107.125 181.8,107.125 	"/>
</g>
<g>
	<path fill="#006C92" d="M345.919,93.469c0.926,0,1.814,0.232,2.664,0.695s1.518,1.125,2.004,1.99s0.73,1.768,0.73,2.711
		c0,0.941-0.238,1.838-0.715,2.689s-1.143,1.518-1.994,1.994s-1.748,0.715-2.689,0.715c-0.938,0-1.834-0.238-2.686-0.715
		c-0.854-0.477-1.518-1.143-1.994-1.994s-0.715-1.748-0.715-2.689c0-0.943,0.242-1.846,0.729-2.711
		c0.484-0.865,1.154-1.527,2.004-1.99S344.995,93.469,345.919,93.469z M345.927,94.528c-0.742,0-1.453,0.186-2.135,0.557
		c-0.68,0.371-1.218,0.902-1.609,1.598c-0.393,0.695-0.588,1.424-0.588,2.184c0,0.758,0.19,1.479,0.574,2.166
		c0.383,0.684,0.918,1.219,1.604,1.605c0.684,0.385,1.402,0.576,2.154,0.576c0.756,0,1.479-0.191,2.16-0.576
		c0.682-0.387,1.217-0.922,1.602-1.605c0.386-0.688,0.578-1.408,0.578-2.166c0-0.76-0.195-1.488-0.588-2.184
		c-0.394-0.695-0.93-1.227-1.613-1.598S346.669,94.528,345.927,94.528z M343.483,101.754V96.03h1.16
		c1.092,0,1.701,0.004,1.834,0.012c0.385,0.033,0.683,0.109,0.896,0.23c0.215,0.119,0.393,0.301,0.534,0.549
		c0.146,0.246,0.218,0.52,0.218,0.82c0,0.414-0.135,0.766-0.404,1.061c-0.272,0.293-0.65,0.475-1.139,0.547
		c0.174,0.064,0.307,0.137,0.4,0.215c0.096,0.078,0.225,0.225,0.389,0.439c0.041,0.057,0.184,0.289,0.424,0.697l0.674,1.154h-1.438
		l-0.479-0.93c-0.324-0.623-0.59-1.016-0.803-1.18c-0.211-0.16-0.479-0.244-0.803-0.244h-0.305v2.354H343.483z M344.644,98.5h0.473
		c0.672,0,1.09-0.025,1.251-0.076c0.163-0.053,0.29-0.143,0.386-0.271c0.092-0.129,0.139-0.277,0.139-0.441
		c0-0.158-0.045-0.303-0.137-0.426c-0.09-0.125-0.222-0.213-0.391-0.268c-0.17-0.055-0.584-0.082-1.248-0.082h-0.473V98.5z"/>
</g>
<path fill="#006C92" d="M81.606,39.44c-1.246-8.168-10.123-8.785-10.123-8.785H59.037l8.325,54.83l16.763-29.553L81.606,39.44z"/>
<path fill="#006C92" d="M47.938,39.44c-1.247-8.168-10.124-8.785-10.124-8.785H25.368l8.012,52.771h0.002
	c0,0,1.332,8.785,10.117,8.785h12.492L47.938,39.44z"/>
<path fill="#006C92" d="M14.351,103.901c9.317,9.539,24.928,13.348,42.592,11.787l7.674-13.533
	c-17.474,2.709-33.064-0.197-41.67-9.152c-9.287-9.674-8.285-24.166,0.818-38.506l-1.297-8.543
	C4.56,66.502,0.386,89.59,14.351,103.901z"/>
<path fill="#006C92" d="M118.075,7.891c-21.24-3.822-49.617,2.885-73.941,19.211c1.484,0.68,2.971,1.609,4.307,2.828
	c0.84-0.572,1.688-1.141,2.557-1.703c21.671-13.973,46.586-19.67,64.777-16.277c1.781,0.334,3.492,0.762,5.135,1.268l2.338-4.119
	C121.571,8.629,119.857,8.211,118.075,7.891z"/>
<path fill="#006C92" d="M141.406,19.581l-3.511,6.189c0.996,1.756,1.752,3.607,2.253,5.547c3.933,15.238-7.198,35.625-29.147,51.393
	l-11.232,19.807c3.848-2.039,7.643-4.283,11.34-6.768c32.268-21.656,46.076-52.627,33.426-72.166
	C143.63,22.186,142.579,20.856,141.406,19.581z"/>
<path fill="#8ED300" d="M140.87,18.971c-4.537-4.648-10.59-7.904-17.623-9.873l-2.338,4.119l-70.086,123.58h24.103l62.97-111.027
	l3.511-6.189C141.222,19.381,141.062,19.168,140.87,18.971z"/>
</svg>
